<?xml version="1.0" encoding="UTF-8"?><svg xmlns="http://www.w3.org/2000/svg" xmlns:xlink="http://www.w3.org/1999/xlink" contentStyleType="text/css" height="573px" preserveAspectRatio="none" style="width:3156px;height:573px;background:#FFFFFF;" version="1.1" viewBox="0 0 3156 573" width="3156px" zoomAndPan="magnify">
    <defs/>
    <g>
        <!--cluster Controller-->
        <g id="cluster_Controller">
            <path d="M198.5,6 L270.5,6 A3.75,3.75 0 0 1 273,8.5 L280,29.6094 L2873.5,29.6094 A2.5,2.5 0 0 1 2876,32.1094 L2876,156.5 A2.5,2.5 0 0 1 2873.5,159 L198.5,159 A2.5,2.5 0 0 1 196,156.5 L196,8.5 A2.5,2.5 0 0 1 198.5,6 " fill="none" style="stroke:#000000;stroke-width:1.5;"/>
            <line style="stroke:#000000;stroke-width:1.5;" x1="196" x2="280" y1="29.6094" y2="29.6094"/>
            <text fill="#000000" font-family="sans-serif" font-size="14" font-weight="bold" lengthAdjust="spacing" textLength="71" x="200" y="22.5332">Controller</text>
        </g>
        <!--cluster Model-->
        <g id="cluster_Model">
            <path d="M1541.5,378 L1586.5,378 A3.75,3.75 0 0 1 1589,380.5 L1596,401.6094 L2856.5,401.6094 A2.5,2.5 0 0 1 2859,404.1094 L2859,563.5 A2.5,2.5 0 0 1 2856.5,566 L1541.5,566 A2.5,2.5 0 0 1 1539,563.5 L1539,380.5 A2.5,2.5 0 0 1 1541.5,378 " fill="none" style="stroke:#000000;stroke-width:1.5;"/>
            <line style="stroke:#000000;stroke-width:1.5;" x1="1539" x2="1596" y1="401.6094" y2="401.6094"/>
            <text fill="#000000" font-family="sans-serif" font-size="14" font-weight="bold" lengthAdjust="spacing" textLength="44" x="1543" y="394.5332">Model</text>
        </g>
        <!--cluster DAO-->
        <g id="cluster_DAO">
            <path d="M687.5,192 L718.5,192 A3.75,3.75 0 0 1 721,194.5 L728,215.6094 L1845.5,215.6094 A2.5,2.5 0 0 1 1848,218.1094 L1848,342.5 A2.5,2.5 0 0 1 1845.5,345 L687.5,345 A2.5,2.5 0 0 1 685,342.5 L685,194.5 A2.5,2.5 0 0 1 687.5,192 " fill="none" style="stroke:#000000;stroke-width:1.5;"/>
            <line style="stroke:#000000;stroke-width:1.5;" x1="685" x2="728" y1="215.6094" y2="215.6094"/>
            <text fill="#000000" font-family="sans-serif" font-size="14" font-weight="bold" lengthAdjust="spacing" textLength="30" x="689" y="208.5332">DAO</text>
        </g>
        <!--cluster Factory-->
        <g id="cluster_Factory">
            <path d="M2885.5,209.5 L2938.5,209.5 A3.75,3.75 0 0 1 2941,212 L2948,233.1094 L3146.5,233.1094 A2.5,2.5 0 0 1 3149,235.6094 L3149,528.5 A2.5,2.5 0 0 1 3146.5,531 L2885.5,531 A2.5,2.5 0 0 1 2883,528.5 L2883,212 A2.5,2.5 0 0 1 2885.5,209.5 " fill="none" style="stroke:#000000;stroke-width:1.5;"/>
            <line style="stroke:#000000;stroke-width:1.5;" x1="2883" x2="2948" y1="233.1094" y2="233.1094"/>
            <text fill="#000000" font-family="sans-serif" font-size="14" font-weight="bold" lengthAdjust="spacing" textLength="52" x="2887" y="226.0332">Factory</text>
        </g>
        <!--class AdministradorController-->
        <g id="elem_AdministradorController">
            <rect codeLine="5" fill="#F1F1F1" height="100.8281" id="AdministradorController" rx="2.5" ry="2.5" style="stroke:#181818;stroke-width:0.5;" width="448" x="212" y="42"/>
            <ellipse cx="357.25" cy="58" fill="#ADD1B2" rx="11" ry="11" style="stroke:#181818;stroke-width:1.0;"/>
            <path d="M360.0156,53.875 Q360.1719,53.6563 360.3594,53.5469 Q360.5469,53.4375 360.7656,53.4375 Q361.1406,53.4375 361.375,53.7031 Q361.6094,53.9531 361.6094,54.5625 L361.6094,56.0156 Q361.6094,56.625 361.375,56.8906 Q361.1406,57.1563 360.7656,57.1563 Q360.4219,57.1563 360.2188,56.9531 Q360.0156,56.7656 359.9063,56.25 Q359.8594,55.8906 359.6719,55.7031 Q359.3438,55.3281 358.7344,55.1094 Q358.125,54.8906 357.5,54.8906 Q356.7344,54.8906 356.0938,55.2188 Q355.4688,55.5469 354.9688,56.2969 Q354.4844,57.0469 354.4844,58.0781 L354.4844,59.1719 Q354.4844,60.4063 355.375,61.2344 Q356.2656,62.0469 357.8594,62.0469 Q358.7969,62.0469 359.4531,61.7969 Q359.8438,61.6406 360.2656,61.2031 Q360.5313,60.9375 360.6719,60.8594 Q360.8281,60.7813 361.0313,60.7813 Q361.3594,60.7813 361.6094,61.0469 Q361.875,61.2969 361.875,61.6406 Q361.875,61.9844 361.5313,62.3906 Q361.0313,62.9688 360.2344,63.2969 Q359.1563,63.75 357.8594,63.75 Q356.3438,63.75 355.1406,63.125 Q354.1563,62.625 353.4688,61.5625 Q352.7813,60.4844 352.7813,59.2031 L352.7813,58.0469 Q352.7813,56.7188 353.3906,55.5781 Q354.0156,54.4219 355.1094,53.8125 Q356.2031,53.1875 357.4375,53.1875 Q358.1719,53.1875 358.8125,53.3594 Q359.4688,53.5156 360.0156,53.875 Z " fill="#000000"/>
            <text fill="#000000" font-family="sans-serif" font-size="14" lengthAdjust="spacing" textLength="149" x="377.75" y="63.7285">AdministradorController</text>
            <line style="stroke:#181818;stroke-width:0.5;" x1="213" x2="659" y1="74" y2="74"/>
            <line style="stroke:#181818;stroke-width:0.5;" x1="213" x2="659" y1="82" y2="82"/>
            <ellipse cx="223" cy="96.3047" fill="#84BE84" rx="3" ry="3" style="stroke:#038048;stroke-width:1.0;"/>
            <text fill="#000000" font-family="sans-serif" font-size="14" lengthAdjust="spacing" textLength="422" x="232" y="100.5332">agregarAdministrador(usuario: String, contraseña: String): boolean</text>
            <ellipse cx="223" cy="113.9141" fill="#84BE84" rx="3" ry="3" style="stroke:#038048;stroke-width:1.0;"/>
            <text fill="#000000" font-family="sans-serif" font-size="14" lengthAdjust="spacing" textLength="410" x="232" y="118.1426">validarCredenciales(usuario: String, contraseña: String): boolean</text>
            <ellipse cx="223" cy="131.5234" fill="#84BE84" rx="3" ry="3" style="stroke:#038048;stroke-width:1.0;"/>
            <text fill="#000000" font-family="sans-serif" font-size="14" lengthAdjust="spacing" textLength="275" x="232" y="135.752">listarAdministradores(): List&lt;Administrador&gt;</text>
        </g>
        <!--class ActividadController-->
        <g id="elem_ActividadController">
            <rect codeLine="11" fill="#F1F1F1" height="83.2188" id="ActividadController" rx="2.5" ry="2.5" style="stroke:#181818;stroke-width:0.5;" width="635" x="695.5" y="51"/>
            <ellipse cx="949.25" cy="67" fill="#ADD1B2" rx="11" ry="11" style="stroke:#181818;stroke-width:1.0;"/>
            <path d="M952.0156,62.875 Q952.1719,62.6563 952.3594,62.5469 Q952.5469,62.4375 952.7656,62.4375 Q953.1406,62.4375 953.375,62.7031 Q953.6094,62.9531 953.6094,63.5625 L953.6094,65.0156 Q953.6094,65.625 953.375,65.8906 Q953.1406,66.1563 952.7656,66.1563 Q952.4219,66.1563 952.2188,65.9531 Q952.0156,65.7656 951.9063,65.25 Q951.8594,64.8906 951.6719,64.7031 Q951.3438,64.3281 950.7344,64.1094 Q950.125,63.8906 949.5,63.8906 Q948.7344,63.8906 948.0938,64.2188 Q947.4688,64.5469 946.9688,65.2969 Q946.4844,66.0469 946.4844,67.0781 L946.4844,68.1719 Q946.4844,69.4063 947.375,70.2344 Q948.2656,71.0469 949.8594,71.0469 Q950.7969,71.0469 951.4531,70.7969 Q951.8438,70.6406 952.2656,70.2031 Q952.5313,69.9375 952.6719,69.8594 Q952.8281,69.7813 953.0313,69.7813 Q953.3594,69.7813 953.6094,70.0469 Q953.875,70.2969 953.875,70.6406 Q953.875,70.9844 953.5313,71.3906 Q953.0313,71.9688 952.2344,72.2969 Q951.1563,72.75 949.8594,72.75 Q948.3438,72.75 947.1406,72.125 Q946.1563,71.625 945.4688,70.5625 Q944.7813,69.4844 944.7813,68.2031 L944.7813,67.0469 Q944.7813,65.7188 945.3906,64.5781 Q946.0156,63.4219 947.1094,62.8125 Q948.2031,62.1875 949.4375,62.1875 Q950.1719,62.1875 950.8125,62.3594 Q951.4688,62.5156 952.0156,62.875 Z " fill="#000000"/>
            <text fill="#000000" font-family="sans-serif" font-size="14" lengthAdjust="spacing" textLength="119" x="969.75" y="72.7285">ActividadController</text>
            <line style="stroke:#181818;stroke-width:0.5;" x1="696.5" x2="1329.5" y1="83" y2="83"/>
            <line style="stroke:#181818;stroke-width:0.5;" x1="696.5" x2="1329.5" y1="91" y2="91"/>
            <ellipse cx="706.5" cy="105.3047" fill="#84BE84" rx="3" ry="3" style="stroke:#038048;stroke-width:1.0;"/>
            <text fill="#000000" font-family="sans-serif" font-size="14" lengthAdjust="spacing" textLength="609" x="715.5" y="109.5332">agregarActividad(descripcion: String, fecha: Date, hora: Time, evidenciaImagen: String): boolean</text>
            <ellipse cx="706.5" cy="122.9141" fill="#84BE84" rx="3" ry="3" style="stroke:#038048;stroke-width:1.0;"/>
            <text fill="#000000" font-family="sans-serif" font-size="14" lengthAdjust="spacing" textLength="215" x="715.5" y="127.1426">listarActividades(): List&lt;Actividad&gt;</text>
        </g>
        <!--class ColoniaController-->
        <g id="elem_ColoniaController">
            <rect codeLine="16" fill="#F1F1F1" height="83.2188" id="ColoniaController" rx="2.5" ry="2.5" style="stroke:#181818;stroke-width:0.5;" width="628" x="1366" y="51"/>
            <ellipse cx="1620.75" cy="67" fill="#ADD1B2" rx="11" ry="11" style="stroke:#181818;stroke-width:1.0;"/>
            <path d="M1623.5156,62.875 Q1623.6719,62.6563 1623.8594,62.5469 Q1624.0469,62.4375 1624.2656,62.4375 Q1624.6406,62.4375 1624.875,62.7031 Q1625.1094,62.9531 1625.1094,63.5625 L1625.1094,65.0156 Q1625.1094,65.625 1624.875,65.8906 Q1624.6406,66.1563 1624.2656,66.1563 Q1623.9219,66.1563 1623.7188,65.9531 Q1623.5156,65.7656 1623.4063,65.25 Q1623.3594,64.8906 1623.1719,64.7031 Q1622.8438,64.3281 1622.2344,64.1094 Q1621.625,63.8906 1621,63.8906 Q1620.2344,63.8906 1619.5938,64.2188 Q1618.9688,64.5469 1618.4688,65.2969 Q1617.9844,66.0469 1617.9844,67.0781 L1617.9844,68.1719 Q1617.9844,69.4063 1618.875,70.2344 Q1619.7656,71.0469 1621.3594,71.0469 Q1622.2969,71.0469 1622.9531,70.7969 Q1623.3438,70.6406 1623.7656,70.2031 Q1624.0313,69.9375 1624.1719,69.8594 Q1624.3281,69.7813 1624.5313,69.7813 Q1624.8594,69.7813 1625.1094,70.0469 Q1625.375,70.2969 1625.375,70.6406 Q1625.375,70.9844 1625.0313,71.3906 Q1624.5313,71.9688 1623.7344,72.2969 Q1622.6563,72.75 1621.3594,72.75 Q1619.8438,72.75 1618.6406,72.125 Q1617.6563,71.625 1616.9688,70.5625 Q1616.2813,69.4844 1616.2813,68.2031 L1616.2813,67.0469 Q1616.2813,65.7188 1616.8906,64.5781 Q1617.5156,63.4219 1618.6094,62.8125 Q1619.7031,62.1875 1620.9375,62.1875 Q1621.6719,62.1875 1622.3125,62.3594 Q1622.9688,62.5156 1623.5156,62.875 Z " fill="#000000"/>
            <text fill="#000000" font-family="sans-serif" font-size="14" lengthAdjust="spacing" textLength="110" x="1641.25" y="72.7285">ColoniaController</text>
            <line style="stroke:#181818;stroke-width:0.5;" x1="1367" x2="1993" y1="83" y2="83"/>
            <line style="stroke:#181818;stroke-width:0.5;" x1="1367" x2="1993" y1="91" y2="91"/>
            <ellipse cx="1377" cy="105.3047" fill="#84BE84" rx="3" ry="3" style="stroke:#038048;stroke-width:1.0;"/>
            <text fill="#000000" font-family="sans-serif" font-size="14" lengthAdjust="spacing" textLength="602" x="1386" y="109.5332">agregarColonia(nombre: String, codigoPostal: String, municipio: String, estado: String): boolean</text>
            <ellipse cx="1377" cy="122.9141" fill="#84BE84" rx="3" ry="3" style="stroke:#038048;stroke-width:1.0;"/>
            <text fill="#000000" font-family="sans-serif" font-size="14" lengthAdjust="spacing" textLength="189" x="1386" y="127.1426">listarColonias(): List&lt;Colonia&gt;</text>
        </g>
        <!--class CuadrillaController-->
        <g id="elem_CuadrillaController">
            <rect codeLine="21" fill="#F1F1F1" height="83.2188" id="CuadrillaController" rx="2.5" ry="2.5" style="stroke:#181818;stroke-width:0.5;" width="350" x="2029" y="51"/>
            <ellipse cx="2140.75" cy="67" fill="#ADD1B2" rx="11" ry="11" style="stroke:#181818;stroke-width:1.0;"/>
            <path d="M2143.5156,62.875 Q2143.6719,62.6563 2143.8594,62.5469 Q2144.0469,62.4375 2144.2656,62.4375 Q2144.6406,62.4375 2144.875,62.7031 Q2145.1094,62.9531 2145.1094,63.5625 L2145.1094,65.0156 Q2145.1094,65.625 2144.875,65.8906 Q2144.6406,66.1563 2144.2656,66.1563 Q2143.9219,66.1563 2143.7188,65.9531 Q2143.5156,65.7656 2143.4063,65.25 Q2143.3594,64.8906 2143.1719,64.7031 Q2142.8438,64.3281 2142.2344,64.1094 Q2141.625,63.8906 2141,63.8906 Q2140.2344,63.8906 2139.5938,64.2188 Q2138.9688,64.5469 2138.4688,65.2969 Q2137.9844,66.0469 2137.9844,67.0781 L2137.9844,68.1719 Q2137.9844,69.4063 2138.875,70.2344 Q2139.7656,71.0469 2141.3594,71.0469 Q2142.2969,71.0469 2142.9531,70.7969 Q2143.3438,70.6406 2143.7656,70.2031 Q2144.0313,69.9375 2144.1719,69.8594 Q2144.3281,69.7813 2144.5313,69.7813 Q2144.8594,69.7813 2145.1094,70.0469 Q2145.375,70.2969 2145.375,70.6406 Q2145.375,70.9844 2145.0313,71.3906 Q2144.5313,71.9688 2143.7344,72.2969 Q2142.6563,72.75 2141.3594,72.75 Q2139.8438,72.75 2138.6406,72.125 Q2137.6563,71.625 2136.9688,70.5625 Q2136.2813,69.4844 2136.2813,68.2031 L2136.2813,67.0469 Q2136.2813,65.7188 2136.8906,64.5781 Q2137.5156,63.4219 2138.6094,62.8125 Q2139.7031,62.1875 2140.9375,62.1875 Q2141.6719,62.1875 2142.3125,62.3594 Q2142.9688,62.5156 2143.5156,62.875 Z " fill="#000000"/>
            <text fill="#000000" font-family="sans-serif" font-size="14" lengthAdjust="spacing" textLength="118" x="2161.25" y="72.7285">CuadrillaController</text>
            <line style="stroke:#181818;stroke-width:0.5;" x1="2030" x2="2378" y1="83" y2="83"/>
            <line style="stroke:#181818;stroke-width:0.5;" x1="2030" x2="2378" y1="91" y2="91"/>
            <ellipse cx="2040" cy="105.3047" fill="#84BE84" rx="3" ry="3" style="stroke:#038048;stroke-width:1.0;"/>
            <text fill="#000000" font-family="sans-serif" font-size="14" lengthAdjust="spacing" textLength="324" x="2049" y="109.5332">agregarCuadrilla(nombreCuadrilla: String): boolean</text>
            <ellipse cx="2040" cy="122.9141" fill="#84BE84" rx="3" ry="3" style="stroke:#038048;stroke-width:1.0;"/>
            <text fill="#000000" font-family="sans-serif" font-size="14" lengthAdjust="spacing" textLength="205" x="2049" y="127.1426">listarCuadrillas(): List&lt;Cuadrilla&gt;</text>
        </g>
        <!--class JefeCuadrillaController-->
        <g id="elem_JefeCuadrillaController">
            <rect codeLine="26" fill="#F1F1F1" height="83.2188" id="JefeCuadrillaController" rx="2.5" ry="2.5" style="stroke:#181818;stroke-width:0.5;" width="445" x="2414.5" y="51"/>
            <ellipse cx="2560.75" cy="67" fill="#ADD1B2" rx="11" ry="11" style="stroke:#181818;stroke-width:1.0;"/>
            <path d="M2563.5156,62.875 Q2563.6719,62.6563 2563.8594,62.5469 Q2564.0469,62.4375 2564.2656,62.4375 Q2564.6406,62.4375 2564.875,62.7031 Q2565.1094,62.9531 2565.1094,63.5625 L2565.1094,65.0156 Q2565.1094,65.625 2564.875,65.8906 Q2564.6406,66.1563 2564.2656,66.1563 Q2563.9219,66.1563 2563.7188,65.9531 Q2563.5156,65.7656 2563.4063,65.25 Q2563.3594,64.8906 2563.1719,64.7031 Q2562.8438,64.3281 2562.2344,64.1094 Q2561.625,63.8906 2561,63.8906 Q2560.2344,63.8906 2559.5938,64.2188 Q2558.9688,64.5469 2558.4688,65.2969 Q2557.9844,66.0469 2557.9844,67.0781 L2557.9844,68.1719 Q2557.9844,69.4063 2558.875,70.2344 Q2559.7656,71.0469 2561.3594,71.0469 Q2562.2969,71.0469 2562.9531,70.7969 Q2563.3438,70.6406 2563.7656,70.2031 Q2564.0313,69.9375 2564.1719,69.8594 Q2564.3281,69.7813 2564.5313,69.7813 Q2564.8594,69.7813 2565.1094,70.0469 Q2565.375,70.2969 2565.375,70.6406 Q2565.375,70.9844 2565.0313,71.3906 Q2564.5313,71.9688 2563.7344,72.2969 Q2562.6563,72.75 2561.3594,72.75 Q2559.8438,72.75 2558.6406,72.125 Q2557.6563,71.625 2556.9688,70.5625 Q2556.2813,69.4844 2556.2813,68.2031 L2556.2813,67.0469 Q2556.2813,65.7188 2556.8906,64.5781 Q2557.5156,63.4219 2558.6094,62.8125 Q2559.7031,62.1875 2560.9375,62.1875 Q2561.6719,62.1875 2562.3125,62.3594 Q2562.9688,62.5156 2563.5156,62.875 Z " fill="#000000"/>
            <text fill="#000000" font-family="sans-serif" font-size="14" lengthAdjust="spacing" textLength="144" x="2581.25" y="72.7285">JefeCuadrillaController</text>
            <line style="stroke:#181818;stroke-width:0.5;" x1="2415.5" x2="2858.5" y1="83" y2="83"/>
            <line style="stroke:#181818;stroke-width:0.5;" x1="2415.5" x2="2858.5" y1="91" y2="91"/>
            <ellipse cx="2425.5" cy="105.3047" fill="#84BE84" rx="3" ry="3" style="stroke:#038048;stroke-width:1.0;"/>
            <text fill="#000000" font-family="sans-serif" font-size="14" lengthAdjust="spacing" textLength="419" x="2434.5" y="109.5332">agregarJefeCuadrilla(nombre: String, cuadrilla: Cuadrilla): boolean</text>
            <ellipse cx="2425.5" cy="122.9141" fill="#84BE84" rx="3" ry="3" style="stroke:#038048;stroke-width:1.0;"/>
            <text fill="#000000" font-family="sans-serif" font-size="14" lengthAdjust="spacing" textLength="257" x="2434.5" y="127.1426">listarJefesCuadrilla(): List&lt;JefeCuadrilla&gt;</text>
        </g>
        <!--class Administrador-->
        <g id="elem_Administrador">
            <rect codeLine="33" fill="#F1F1F1" height="100.8281" id="Administrador" rx="2.5" ry="2.5" style="stroke:#181818;stroke-width:0.5;" width="147" x="2695.5" y="431.5"/>
            <ellipse cx="2723.1" cy="447.5" fill="#ADD1B2" rx="11" ry="11" style="stroke:#181818;stroke-width:1.0;"/>
            <path d="M2725.8656,443.375 Q2726.0219,443.1563 2726.2094,443.0469 Q2726.3969,442.9375 2726.6156,442.9375 Q2726.9906,442.9375 2727.225,443.2031 Q2727.4594,443.4531 2727.4594,444.0625 L2727.4594,445.5156 Q2727.4594,446.125 2727.225,446.3906 Q2726.9906,446.6563 2726.6156,446.6563 Q2726.2719,446.6563 2726.0688,446.4531 Q2725.8656,446.2656 2725.7563,445.75 Q2725.7094,445.3906 2725.5219,445.2031 Q2725.1938,444.8281 2724.5844,444.6094 Q2723.975,444.3906 2723.35,444.3906 Q2722.5844,444.3906 2721.9438,444.7188 Q2721.3188,445.0469 2720.8188,445.7969 Q2720.3344,446.5469 2720.3344,447.5781 L2720.3344,448.6719 Q2720.3344,449.9063 2721.225,450.7344 Q2722.1156,451.5469 2723.7094,451.5469 Q2724.6469,451.5469 2725.3031,451.2969 Q2725.6938,451.1406 2726.1156,450.7031 Q2726.3813,450.4375 2726.5219,450.3594 Q2726.6781,450.2813 2726.8813,450.2813 Q2727.2094,450.2813 2727.4594,450.5469 Q2727.725,450.7969 2727.725,451.1406 Q2727.725,451.4844 2727.3813,451.8906 Q2726.8813,452.4688 2726.0844,452.7969 Q2725.0063,453.25 2723.7094,453.25 Q2722.1938,453.25 2720.9906,452.625 Q2720.0063,452.125 2719.3188,451.0625 Q2718.6313,449.9844 2718.6313,448.7031 L2718.6313,447.5469 Q2718.6313,446.2188 2719.2406,445.0781 Q2719.8656,443.9219 2720.9594,443.3125 Q2722.0531,442.6875 2723.2875,442.6875 Q2724.0219,442.6875 2724.6625,442.8594 Q2725.3188,443.0156 2725.8656,443.375 Z " fill="#000000"/>
            <text fill="#000000" font-family="sans-serif" font-size="14" lengthAdjust="spacing" textLength="87" x="2739.9" y="453.2285">Administrador</text>
            <line style="stroke:#181818;stroke-width:0.5;" x1="2696.5" x2="2841.5" y1="463.5" y2="463.5"/>
            <rect fill="none" height="6" style="stroke:#C82930;stroke-width:1.0;" width="6" x="2703.5" y="474.8047"/>
            <text fill="#000000" font-family="sans-serif" font-size="14" lengthAdjust="spacing" textLength="121" x="2715.5" y="482.0332">idAdministrador: int</text>
            <rect fill="none" height="6" style="stroke:#C82930;stroke-width:1.0;" width="6" x="2703.5" y="492.4141"/>
            <text fill="#000000" font-family="sans-serif" font-size="14" lengthAdjust="spacing" textLength="92" x="2715.5" y="499.6426">usuario: String</text>
            <rect fill="none" height="6" style="stroke:#C82930;stroke-width:1.0;" width="6" x="2703.5" y="510.0234"/>
            <text fill="#000000" font-family="sans-serif" font-size="14" lengthAdjust="spacing" textLength="116" x="2715.5" y="517.252">contraseña: String</text>
            <line style="stroke:#181818;stroke-width:0.5;" x1="2696.5" x2="2841.5" y1="524.3281" y2="524.3281"/>
        </g>
        <!--class Actividad-->
        <g id="elem_Actividad">
            <rect codeLine="39" fill="#F1F1F1" height="136.0469" id="Actividad" rx="2.5" ry="2.5" style="stroke:#181818;stroke-width:0.5;" width="177" x="2295.5" y="414"/>
            <ellipse cx="2351.25" cy="430" fill="#ADD1B2" rx="11" ry="11" style="stroke:#181818;stroke-width:1.0;"/>
            <path d="M2354.0156,425.875 Q2354.1719,425.6563 2354.3594,425.5469 Q2354.5469,425.4375 2354.7656,425.4375 Q2355.1406,425.4375 2355.375,425.7031 Q2355.6094,425.9531 2355.6094,426.5625 L2355.6094,428.0156 Q2355.6094,428.625 2355.375,428.8906 Q2355.1406,429.1563 2354.7656,429.1563 Q2354.4219,429.1563 2354.2188,428.9531 Q2354.0156,428.7656 2353.9063,428.25 Q2353.8594,427.8906 2353.6719,427.7031 Q2353.3438,427.3281 2352.7344,427.1094 Q2352.125,426.8906 2351.5,426.8906 Q2350.7344,426.8906 2350.0938,427.2188 Q2349.4688,427.5469 2348.9688,428.2969 Q2348.4844,429.0469 2348.4844,430.0781 L2348.4844,431.1719 Q2348.4844,432.4063 2349.375,433.2344 Q2350.2656,434.0469 2351.8594,434.0469 Q2352.7969,434.0469 2353.4531,433.7969 Q2353.8438,433.6406 2354.2656,433.2031 Q2354.5313,432.9375 2354.6719,432.8594 Q2354.8281,432.7813 2355.0313,432.7813 Q2355.3594,432.7813 2355.6094,433.0469 Q2355.875,433.2969 2355.875,433.6406 Q2355.875,433.9844 2355.5313,434.3906 Q2355.0313,434.9688 2354.2344,435.2969 Q2353.1563,435.75 2351.8594,435.75 Q2350.3438,435.75 2349.1406,435.125 Q2348.1563,434.625 2347.4688,433.5625 Q2346.7813,432.4844 2346.7813,431.2031 L2346.7813,430.0469 Q2346.7813,428.7188 2347.3906,427.5781 Q2348.0156,426.4219 2349.1094,425.8125 Q2350.2031,425.1875 2351.4375,425.1875 Q2352.1719,425.1875 2352.8125,425.3594 Q2353.4688,425.5156 2354.0156,425.875 Z " fill="#000000"/>
            <text fill="#000000" font-family="sans-serif" font-size="14" lengthAdjust="spacing" textLength="57" x="2371.75" y="435.7285">Actividad</text>
            <line style="stroke:#181818;stroke-width:0.5;" x1="2296.5" x2="2471.5" y1="446" y2="446"/>
            <rect fill="none" height="6" style="stroke:#C82930;stroke-width:1.0;" width="6" x="2303.5" y="457.3047"/>
            <text fill="#000000" font-family="sans-serif" font-size="14" lengthAdjust="spacing" textLength="91" x="2315.5" y="464.5332">idActividad: int</text>
            <rect fill="none" height="6" style="stroke:#C82930;stroke-width:1.0;" width="6" x="2303.5" y="474.9141"/>
            <text fill="#000000" font-family="sans-serif" font-size="14" lengthAdjust="spacing" textLength="117" x="2315.5" y="482.1426">descripcion: String</text>
            <rect fill="none" height="6" style="stroke:#C82930;stroke-width:1.0;" width="6" x="2303.5" y="492.5234"/>
            <text fill="#000000" font-family="sans-serif" font-size="14" lengthAdjust="spacing" textLength="73" x="2315.5" y="499.752">fecha: Date</text>
            <rect fill="none" height="6" style="stroke:#C82930;stroke-width:1.0;" width="6" x="2303.5" y="510.1328"/>
            <text fill="#000000" font-family="sans-serif" font-size="14" lengthAdjust="spacing" textLength="68" x="2315.5" y="517.3613">hora: Time</text>
            <rect fill="none" height="6" style="stroke:#C82930;stroke-width:1.0;" width="6" x="2303.5" y="527.7422"/>
            <text fill="#000000" font-family="sans-serif" font-size="14" lengthAdjust="spacing" textLength="151" x="2315.5" y="534.9707">evidenciaImagen: String</text>
            <line style="stroke:#181818;stroke-width:0.5;" x1="2296.5" x2="2471.5" y1="542.0469" y2="542.0469"/>
        </g>
        <!--class Colonia-->
        <g id="elem_Colonia">
            <rect codeLine="47" fill="#F1F1F1" height="136.0469" id="Colonia" rx="2.5" ry="2.5" style="stroke:#181818;stroke-width:0.5;" width="152" x="2508" y="414"/>
            <ellipse cx="2555.75" cy="430" fill="#ADD1B2" rx="11" ry="11" style="stroke:#181818;stroke-width:1.0;"/>
            <path d="M2558.5156,425.875 Q2558.6719,425.6563 2558.8594,425.5469 Q2559.0469,425.4375 2559.2656,425.4375 Q2559.6406,425.4375 2559.875,425.7031 Q2560.1094,425.9531 2560.1094,426.5625 L2560.1094,428.0156 Q2560.1094,428.625 2559.875,428.8906 Q2559.6406,429.1563 2559.2656,429.1563 Q2558.9219,429.1563 2558.7188,428.9531 Q2558.5156,428.7656 2558.4063,428.25 Q2558.3594,427.8906 2558.1719,427.7031 Q2557.8438,427.3281 2557.2344,427.1094 Q2556.625,426.8906 2556,426.8906 Q2555.2344,426.8906 2554.5938,427.2188 Q2553.9688,427.5469 2553.4688,428.2969 Q2552.9844,429.0469 2552.9844,430.0781 L2552.9844,431.1719 Q2552.9844,432.4063 2553.875,433.2344 Q2554.7656,434.0469 2556.3594,434.0469 Q2557.2969,434.0469 2557.9531,433.7969 Q2558.3438,433.6406 2558.7656,433.2031 Q2559.0313,432.9375 2559.1719,432.8594 Q2559.3281,432.7813 2559.5313,432.7813 Q2559.8594,432.7813 2560.1094,433.0469 Q2560.375,433.2969 2560.375,433.6406 Q2560.375,433.9844 2560.0313,434.3906 Q2559.5313,434.9688 2558.7344,435.2969 Q2557.6563,435.75 2556.3594,435.75 Q2554.8438,435.75 2553.6406,435.125 Q2552.6563,434.625 2551.9688,433.5625 Q2551.2813,432.4844 2551.2813,431.2031 L2551.2813,430.0469 Q2551.2813,428.7188 2551.8906,427.5781 Q2552.5156,426.4219 2553.6094,425.8125 Q2554.7031,425.1875 2555.9375,425.1875 Q2556.6719,425.1875 2557.3125,425.3594 Q2557.9688,425.5156 2558.5156,425.875 Z " fill="#000000"/>
            <text fill="#000000" font-family="sans-serif" font-size="14" lengthAdjust="spacing" textLength="48" x="2576.25" y="435.7285">Colonia</text>
            <line style="stroke:#181818;stroke-width:0.5;" x1="2509" x2="2659" y1="446" y2="446"/>
            <rect fill="none" height="6" style="stroke:#C82930;stroke-width:1.0;" width="6" x="2516" y="457.3047"/>
            <text fill="#000000" font-family="sans-serif" font-size="14" lengthAdjust="spacing" textLength="82" x="2528" y="464.5332">idColonia: int</text>
            <rect fill="none" height="6" style="stroke:#C82930;stroke-width:1.0;" width="6" x="2516" y="474.9141"/>
            <text fill="#000000" font-family="sans-serif" font-size="14" lengthAdjust="spacing" textLength="93" x="2528" y="482.1426">nombre: String</text>
            <rect fill="none" height="6" style="stroke:#C82930;stroke-width:1.0;" width="6" x="2516" y="492.5234"/>
            <text fill="#000000" font-family="sans-serif" font-size="14" lengthAdjust="spacing" textLength="126" x="2528" y="499.752">codigoPostal: String</text>
            <rect fill="none" height="6" style="stroke:#C82930;stroke-width:1.0;" width="6" x="2516" y="510.1328"/>
            <text fill="#000000" font-family="sans-serif" font-size="14" lengthAdjust="spacing" textLength="104" x="2528" y="517.3613">municipio: String</text>
            <rect fill="none" height="6" style="stroke:#C82930;stroke-width:1.0;" width="6" x="2516" y="527.7422"/>
            <text fill="#000000" font-family="sans-serif" font-size="14" lengthAdjust="spacing" textLength="88" x="2528" y="534.9707">estado: String</text>
            <line style="stroke:#181818;stroke-width:0.5;" x1="2509" x2="2659" y1="542.0469" y2="542.0469"/>
        </g>
        <!--class Cuadrilla-->
        <g id="elem_Cuadrilla">
            <rect codeLine="55" fill="#F1F1F1" height="83.2188" id="Cuadrilla" rx="2.5" ry="2.5" style="stroke:#181818;stroke-width:0.5;" width="175" x="1931.5" y="440.5"/>
            <ellipse cx="1986.75" cy="456.5" fill="#ADD1B2" rx="11" ry="11" style="stroke:#181818;stroke-width:1.0;"/>
            <path d="M1989.5156,452.375 Q1989.6719,452.1563 1989.8594,452.0469 Q1990.0469,451.9375 1990.2656,451.9375 Q1990.6406,451.9375 1990.875,452.2031 Q1991.1094,452.4531 1991.1094,453.0625 L1991.1094,454.5156 Q1991.1094,455.125 1990.875,455.3906 Q1990.6406,455.6563 1990.2656,455.6563 Q1989.9219,455.6563 1989.7188,455.4531 Q1989.5156,455.2656 1989.4063,454.75 Q1989.3594,454.3906 1989.1719,454.2031 Q1988.8438,453.8281 1988.2344,453.6094 Q1987.625,453.3906 1987,453.3906 Q1986.2344,453.3906 1985.5938,453.7188 Q1984.9688,454.0469 1984.4688,454.7969 Q1983.9844,455.5469 1983.9844,456.5781 L1983.9844,457.6719 Q1983.9844,458.9063 1984.875,459.7344 Q1985.7656,460.5469 1987.3594,460.5469 Q1988.2969,460.5469 1988.9531,460.2969 Q1989.3438,460.1406 1989.7656,459.7031 Q1990.0313,459.4375 1990.1719,459.3594 Q1990.3281,459.2813 1990.5313,459.2813 Q1990.8594,459.2813 1991.1094,459.5469 Q1991.375,459.7969 1991.375,460.1406 Q1991.375,460.4844 1991.0313,460.8906 Q1990.5313,461.4688 1989.7344,461.7969 Q1988.6563,462.25 1987.3594,462.25 Q1985.8438,462.25 1984.6406,461.625 Q1983.6563,461.125 1982.9688,460.0625 Q1982.2813,458.9844 1982.2813,457.7031 L1982.2813,456.5469 Q1982.2813,455.2188 1982.8906,454.0781 Q1983.5156,452.9219 1984.6094,452.3125 Q1985.7031,451.6875 1986.9375,451.6875 Q1987.6719,451.6875 1988.3125,451.8594 Q1988.9688,452.0156 1989.5156,452.375 Z " fill="#000000"/>
            <text fill="#000000" font-family="sans-serif" font-size="14" lengthAdjust="spacing" textLength="56" x="2007.25" y="462.2285">Cuadrilla</text>
            <line style="stroke:#181818;stroke-width:0.5;" x1="1932.5" x2="2105.5" y1="472.5" y2="472.5"/>
            <rect fill="none" height="6" style="stroke:#C82930;stroke-width:1.0;" width="6" x="1939.5" y="483.8047"/>
            <text fill="#000000" font-family="sans-serif" font-size="14" lengthAdjust="spacing" textLength="90" x="1951.5" y="491.0332">idCuadrilla: int</text>
            <rect fill="none" height="6" style="stroke:#C82930;stroke-width:1.0;" width="6" x="1939.5" y="501.4141"/>
            <text fill="#000000" font-family="sans-serif" font-size="14" lengthAdjust="spacing" textLength="149" x="1951.5" y="508.6426">nombreCuadrilla: String</text>
            <line style="stroke:#181818;stroke-width:0.5;" x1="1932.5" x2="2105.5" y1="515.7188" y2="515.7188"/>
        </g>
        <!--class JefeCuadrilla-->
        <g id="elem_JefeCuadrilla">
            <rect codeLine="60" fill="#F1F1F1" height="100.8281" id="JefeCuadrilla" rx="2.5" ry="2.5" style="stroke:#181818;stroke-width:0.5;" width="119" x="2141.5" y="431.5"/>
            <ellipse cx="2158.75" cy="447.5" fill="#ADD1B2" rx="11" ry="11" style="stroke:#181818;stroke-width:1.0;"/>
            <path d="M2161.5156,443.375 Q2161.6719,443.1563 2161.8594,443.0469 Q2162.0469,442.9375 2162.2656,442.9375 Q2162.6406,442.9375 2162.875,443.2031 Q2163.1094,443.4531 2163.1094,444.0625 L2163.1094,445.5156 Q2163.1094,446.125 2162.875,446.3906 Q2162.6406,446.6563 2162.2656,446.6563 Q2161.9219,446.6563 2161.7188,446.4531 Q2161.5156,446.2656 2161.4063,445.75 Q2161.3594,445.3906 2161.1719,445.2031 Q2160.8438,444.8281 2160.2344,444.6094 Q2159.625,444.3906 2159,444.3906 Q2158.2344,444.3906 2157.5938,444.7188 Q2156.9688,445.0469 2156.4688,445.7969 Q2155.9844,446.5469 2155.9844,447.5781 L2155.9844,448.6719 Q2155.9844,449.9063 2156.875,450.7344 Q2157.7656,451.5469 2159.3594,451.5469 Q2160.2969,451.5469 2160.9531,451.2969 Q2161.3438,451.1406 2161.7656,450.7031 Q2162.0313,450.4375 2162.1719,450.3594 Q2162.3281,450.2813 2162.5313,450.2813 Q2162.8594,450.2813 2163.1094,450.5469 Q2163.375,450.7969 2163.375,451.1406 Q2163.375,451.4844 2163.0313,451.8906 Q2162.5313,452.4688 2161.7344,452.7969 Q2160.6563,453.25 2159.3594,453.25 Q2157.8438,453.25 2156.6406,452.625 Q2155.6563,452.125 2154.9688,451.0625 Q2154.2813,449.9844 2154.2813,448.7031 L2154.2813,447.5469 Q2154.2813,446.2188 2154.8906,445.0781 Q2155.5156,443.9219 2156.6094,443.3125 Q2157.7031,442.6875 2158.9375,442.6875 Q2159.6719,442.6875 2160.3125,442.8594 Q2160.9688,443.0156 2161.5156,443.375 Z " fill="#000000"/>
            <text fill="#000000" font-family="sans-serif" font-size="14" lengthAdjust="spacing" textLength="82" x="2173.25" y="453.2285">JefeCuadrilla</text>
            <line style="stroke:#181818;stroke-width:0.5;" x1="2142.5" x2="2259.5" y1="463.5" y2="463.5"/>
            <rect fill="none" height="6" style="stroke:#C82930;stroke-width:1.0;" width="6" x="2149.5" y="474.8047"/>
            <text fill="#000000" font-family="sans-serif" font-size="14" lengthAdjust="spacing" textLength="60" x="2161.5" y="482.0332">idJefe: int</text>
            <rect fill="none" height="6" style="stroke:#C82930;stroke-width:1.0;" width="6" x="2149.5" y="492.4141"/>
            <text fill="#000000" font-family="sans-serif" font-size="14" lengthAdjust="spacing" textLength="93" x="2161.5" y="499.6426">nombre: String</text>
            <rect fill="none" height="6" style="stroke:#C82930;stroke-width:1.0;" width="6" x="2149.5" y="510.0234"/>
            <text fill="#000000" font-family="sans-serif" font-size="14" lengthAdjust="spacing" textLength="90" x="2161.5" y="517.252">idCuadrilla: int</text>
            <line style="stroke:#181818;stroke-width:0.5;" x1="2142.5" x2="2259.5" y1="524.3281" y2="524.3281"/>
        </g>
        <!--class DatabaseConnection-->
        <g id="elem_DatabaseConnection">
            <rect codeLine="66" fill="#F1F1F1" height="118.4375" id="DatabaseConnection" rx="2.5" ry="2.5" style="stroke:#181818;stroke-width:0.5;" width="250" x="1555" y="423"/>
            <ellipse cx="1609.25" cy="439" fill="#ADD1B2" rx="11" ry="11" style="stroke:#181818;stroke-width:1.0;"/>
            <path d="M1612.0156,434.875 Q1612.1719,434.6563 1612.3594,434.5469 Q1612.5469,434.4375 1612.7656,434.4375 Q1613.1406,434.4375 1613.375,434.7031 Q1613.6094,434.9531 1613.6094,435.5625 L1613.6094,437.0156 Q1613.6094,437.625 1613.375,437.8906 Q1613.1406,438.1563 1612.7656,438.1563 Q1612.4219,438.1563 1612.2188,437.9531 Q1612.0156,437.7656 1611.9063,437.25 Q1611.8594,436.8906 1611.6719,436.7031 Q1611.3438,436.3281 1610.7344,436.1094 Q1610.125,435.8906 1609.5,435.8906 Q1608.7344,435.8906 1608.0938,436.2188 Q1607.4688,436.5469 1606.9688,437.2969 Q1606.4844,438.0469 1606.4844,439.0781 L1606.4844,440.1719 Q1606.4844,441.4063 1607.375,442.2344 Q1608.2656,443.0469 1609.8594,443.0469 Q1610.7969,443.0469 1611.4531,442.7969 Q1611.8438,442.6406 1612.2656,442.2031 Q1612.5313,441.9375 1612.6719,441.8594 Q1612.8281,441.7813 1613.0313,441.7813 Q1613.3594,441.7813 1613.6094,442.0469 Q1613.875,442.2969 1613.875,442.6406 Q1613.875,442.9844 1613.5313,443.3906 Q1613.0313,443.9688 1612.2344,444.2969 Q1611.1563,444.75 1609.8594,444.75 Q1608.3438,444.75 1607.1406,444.125 Q1606.1563,443.625 1605.4688,442.5625 Q1604.7813,441.4844 1604.7813,440.2031 L1604.7813,439.0469 Q1604.7813,437.7188 1605.3906,436.5781 Q1606.0156,435.4219 1607.1094,434.8125 Q1608.2031,434.1875 1609.4375,434.1875 Q1610.1719,434.1875 1610.8125,434.3594 Q1611.4688,434.5156 1612.0156,434.875 Z " fill="#000000"/>
            <text fill="#000000" font-family="sans-serif" font-size="14" lengthAdjust="spacing" textLength="133" x="1629.75" y="444.7285">DatabaseConnection</text>
            <line style="stroke:#181818;stroke-width:0.5;" x1="1556" x2="1804" y1="455" y2="455"/>
            <rect fill="none" height="6" style="stroke:#C82930;stroke-width:1.0;" width="6" x="1563" y="466.3047"/>
            <text fill="#000000" font-family="sans-serif" font-size="14" lengthAdjust="spacing" textLength="194" x="1575" y="473.5332">instance: DatabaseConnection</text>
            <rect fill="none" height="6" style="stroke:#C82930;stroke-width:1.0;" width="6" x="1563" y="483.9141"/>
            <text fill="#000000" font-family="sans-serif" font-size="14" lengthAdjust="spacing" textLength="149" x="1575" y="491.1426">connection: Connection</text>
            <line style="stroke:#181818;stroke-width:0.5;" x1="1556" x2="1804" y1="498.2188" y2="498.2188"/>
            <ellipse cx="1566" cy="512.5234" fill="#84BE84" rx="3" ry="3" style="stroke:#038048;stroke-width:1.0;"/>
            <text fill="#000000" font-family="sans-serif" font-size="14" lengthAdjust="spacing" textLength="224" x="1575" y="516.752">getInstance(): DatabaseConnection</text>
            <ellipse cx="1566" cy="530.1328" fill="#84BE84" rx="3" ry="3" style="stroke:#038048;stroke-width:1.0;"/>
            <text fill="#000000" font-family="sans-serif" font-size="14" lengthAdjust="spacing" textLength="182" x="1575" y="534.3613">getConnection(): Connection</text>
        </g>
        <!--class AdministradorDAO-->
        <g id="elem_AdministradorDAO">
            <rect codeLine="75" fill="#F1F1F1" height="100.8281" id="AdministradorDAO" rx="2.5" ry="2.5" style="stroke:#181818;stroke-width:0.5;" width="423" x="701.5" y="228"/>
            <ellipse cx="850.25" cy="244" fill="#ADD1B2" rx="11" ry="11" style="stroke:#181818;stroke-width:1.0;"/>
            <path d="M853.0156,239.875 Q853.1719,239.6563 853.3594,239.5469 Q853.5469,239.4375 853.7656,239.4375 Q854.1406,239.4375 854.375,239.7031 Q854.6094,239.9531 854.6094,240.5625 L854.6094,242.0156 Q854.6094,242.625 854.375,242.8906 Q854.1406,243.1563 853.7656,243.1563 Q853.4219,243.1563 853.2188,242.9531 Q853.0156,242.7656 852.9063,242.25 Q852.8594,241.8906 852.6719,241.7031 Q852.3438,241.3281 851.7344,241.1094 Q851.125,240.8906 850.5,240.8906 Q849.7344,240.8906 849.0938,241.2188 Q848.4688,241.5469 847.9688,242.2969 Q847.4844,243.0469 847.4844,244.0781 L847.4844,245.1719 Q847.4844,246.4063 848.375,247.2344 Q849.2656,248.0469 850.8594,248.0469 Q851.7969,248.0469 852.4531,247.7969 Q852.8438,247.6406 853.2656,247.2031 Q853.5313,246.9375 853.6719,246.8594 Q853.8281,246.7813 854.0313,246.7813 Q854.3594,246.7813 854.6094,247.0469 Q854.875,247.2969 854.875,247.6406 Q854.875,247.9844 854.5313,248.3906 Q854.0313,248.9688 853.2344,249.2969 Q852.1563,249.75 850.8594,249.75 Q849.3438,249.75 848.1406,249.125 Q847.1563,248.625 846.4688,247.5625 Q845.7813,246.4844 845.7813,245.2031 L845.7813,244.0469 Q845.7813,242.7188 846.3906,241.5781 Q847.0156,240.4219 848.1094,239.8125 Q849.2031,239.1875 850.4375,239.1875 Q851.1719,239.1875 851.8125,239.3594 Q852.4688,239.5156 853.0156,239.875 Z " fill="#000000"/>
            <text fill="#000000" font-family="sans-serif" font-size="14" lengthAdjust="spacing" textLength="117" x="870.75" y="249.7285">AdministradorDAO</text>
            <line style="stroke:#181818;stroke-width:0.5;" x1="702.5" x2="1123.5" y1="260" y2="260"/>
            <line style="stroke:#181818;stroke-width:0.5;" x1="702.5" x2="1123.5" y1="268" y2="268"/>
            <ellipse cx="712.5" cy="282.3047" fill="#84BE84" rx="3" ry="3" style="stroke:#038048;stroke-width:1.0;"/>
            <text fill="#000000" font-family="sans-serif" font-size="14" lengthAdjust="spacing" textLength="385" x="721.5" y="286.5332">insertarAdministrador(administrador: Administrador): boolean</text>
            <ellipse cx="712.5" cy="299.9141" fill="#84BE84" rx="3" ry="3" style="stroke:#038048;stroke-width:1.0;"/>
            <text fill="#000000" font-family="sans-serif" font-size="14" lengthAdjust="spacing" textLength="397" x="721.5" y="304.1426">actualizarAdministrador(administrador: Administrador): boolean</text>
            <ellipse cx="712.5" cy="317.5234" fill="#84BE84" rx="3" ry="3" style="stroke:#038048;stroke-width:1.0;"/>
            <text fill="#000000" font-family="sans-serif" font-size="14" lengthAdjust="spacing" textLength="239" x="721.5" y="321.752">eliminarAdministrador(id: int): boolean</text>
        </g>
        <!--class ActividadDAO-->
        <g id="elem_ActividadDAO">
            <rect codeLine="81" fill="#F1F1F1" height="100.8281" id="ActividadDAO" rx="2.5" ry="2.5" style="stroke:#181818;stroke-width:0.5;" width="333" x="1159.5" y="228"/>
            <ellipse cx="1278.25" cy="244" fill="#ADD1B2" rx="11" ry="11" style="stroke:#181818;stroke-width:1.0;"/>
            <path d="M1281.0156,239.875 Q1281.1719,239.6563 1281.3594,239.5469 Q1281.5469,239.4375 1281.7656,239.4375 Q1282.1406,239.4375 1282.375,239.7031 Q1282.6094,239.9531 1282.6094,240.5625 L1282.6094,242.0156 Q1282.6094,242.625 1282.375,242.8906 Q1282.1406,243.1563 1281.7656,243.1563 Q1281.4219,243.1563 1281.2188,242.9531 Q1281.0156,242.7656 1280.9063,242.25 Q1280.8594,241.8906 1280.6719,241.7031 Q1280.3438,241.3281 1279.7344,241.1094 Q1279.125,240.8906 1278.5,240.8906 Q1277.7344,240.8906 1277.0938,241.2188 Q1276.4688,241.5469 1275.9688,242.2969 Q1275.4844,243.0469 1275.4844,244.0781 L1275.4844,245.1719 Q1275.4844,246.4063 1276.375,247.2344 Q1277.2656,248.0469 1278.8594,248.0469 Q1279.7969,248.0469 1280.4531,247.7969 Q1280.8438,247.6406 1281.2656,247.2031 Q1281.5313,246.9375 1281.6719,246.8594 Q1281.8281,246.7813 1282.0313,246.7813 Q1282.3594,246.7813 1282.6094,247.0469 Q1282.875,247.2969 1282.875,247.6406 Q1282.875,247.9844 1282.5313,248.3906 Q1282.0313,248.9688 1281.2344,249.2969 Q1280.1563,249.75 1278.8594,249.75 Q1277.3438,249.75 1276.1406,249.125 Q1275.1563,248.625 1274.4688,247.5625 Q1273.7813,246.4844 1273.7813,245.2031 L1273.7813,244.0469 Q1273.7813,242.7188 1274.3906,241.5781 Q1275.0156,240.4219 1276.1094,239.8125 Q1277.2031,239.1875 1278.4375,239.1875 Q1279.1719,239.1875 1279.8125,239.3594 Q1280.4688,239.5156 1281.0156,239.875 Z " fill="#000000"/>
            <text fill="#000000" font-family="sans-serif" font-size="14" lengthAdjust="spacing" textLength="87" x="1298.75" y="249.7285">ActividadDAO</text>
            <line style="stroke:#181818;stroke-width:0.5;" x1="1160.5" x2="1491.5" y1="260" y2="260"/>
            <line style="stroke:#181818;stroke-width:0.5;" x1="1160.5" x2="1491.5" y1="268" y2="268"/>
            <ellipse cx="1170.5" cy="282.3047" fill="#84BE84" rx="3" ry="3" style="stroke:#038048;stroke-width:1.0;"/>
            <text fill="#000000" font-family="sans-serif" font-size="14" lengthAdjust="spacing" textLength="295" x="1179.5" y="286.5332">insertarActividad(actividad: Actividad): boolean</text>
            <ellipse cx="1170.5" cy="299.9141" fill="#84BE84" rx="3" ry="3" style="stroke:#038048;stroke-width:1.0;"/>
            <text fill="#000000" font-family="sans-serif" font-size="14" lengthAdjust="spacing" textLength="307" x="1179.5" y="304.1426">actualizarActividad(actividad: Actividad): boolean</text>
            <ellipse cx="1170.5" cy="317.5234" fill="#84BE84" rx="3" ry="3" style="stroke:#038048;stroke-width:1.0;"/>
            <text fill="#000000" font-family="sans-serif" font-size="14" lengthAdjust="spacing" textLength="209" x="1179.5" y="321.752">eliminarActividad(id: int): boolean</text>
        </g>
        <!--class ColoniaDAO-->
        <g id="elem_ColoniaDAO">
            <rect codeLine="87" fill="#F1F1F1" height="100.8281" id="ColoniaDAO" rx="2.5" ry="2.5" style="stroke:#181818;stroke-width:0.5;" width="304" x="1528" y="228"/>
            <ellipse cx="1636.75" cy="244" fill="#ADD1B2" rx="11" ry="11" style="stroke:#181818;stroke-width:1.0;"/>
            <path d="M1639.5156,239.875 Q1639.6719,239.6563 1639.8594,239.5469 Q1640.0469,239.4375 1640.2656,239.4375 Q1640.6406,239.4375 1640.875,239.7031 Q1641.1094,239.9531 1641.1094,240.5625 L1641.1094,242.0156 Q1641.1094,242.625 1640.875,242.8906 Q1640.6406,243.1563 1640.2656,243.1563 Q1639.9219,243.1563 1639.7188,242.9531 Q1639.5156,242.7656 1639.4063,242.25 Q1639.3594,241.8906 1639.1719,241.7031 Q1638.8438,241.3281 1638.2344,241.1094 Q1637.625,240.8906 1637,240.8906 Q1636.2344,240.8906 1635.5938,241.2188 Q1634.9688,241.5469 1634.4688,242.2969 Q1633.9844,243.0469 1633.9844,244.0781 L1633.9844,245.1719 Q1633.9844,246.4063 1634.875,247.2344 Q1635.7656,248.0469 1637.3594,248.0469 Q1638.2969,248.0469 1638.9531,247.7969 Q1639.3438,247.6406 1639.7656,247.2031 Q1640.0313,246.9375 1640.1719,246.8594 Q1640.3281,246.7813 1640.5313,246.7813 Q1640.8594,246.7813 1641.1094,247.0469 Q1641.375,247.2969 1641.375,247.6406 Q1641.375,247.9844 1641.0313,248.3906 Q1640.5313,248.9688 1639.7344,249.2969 Q1638.6563,249.75 1637.3594,249.75 Q1635.8438,249.75 1634.6406,249.125 Q1633.6563,248.625 1632.9688,247.5625 Q1632.2813,246.4844 1632.2813,245.2031 L1632.2813,244.0469 Q1632.2813,242.7188 1632.8906,241.5781 Q1633.5156,240.4219 1634.6094,239.8125 Q1635.7031,239.1875 1636.9375,239.1875 Q1637.6719,239.1875 1638.3125,239.3594 Q1638.9688,239.5156 1639.5156,239.875 Z " fill="#000000"/>
            <text fill="#000000" font-family="sans-serif" font-size="14" lengthAdjust="spacing" textLength="78" x="1657.25" y="249.7285">ColoniaDAO</text>
            <line style="stroke:#181818;stroke-width:0.5;" x1="1529" x2="1831" y1="260" y2="260"/>
            <line style="stroke:#181818;stroke-width:0.5;" x1="1529" x2="1831" y1="268" y2="268"/>
            <ellipse cx="1539" cy="282.3047" fill="#84BE84" rx="3" ry="3" style="stroke:#038048;stroke-width:1.0;"/>
            <text fill="#000000" font-family="sans-serif" font-size="14" lengthAdjust="spacing" textLength="266" x="1548" y="286.5332">insertarColonia(colonia: Colonia): boolean</text>
            <ellipse cx="1539" cy="299.9141" fill="#84BE84" rx="3" ry="3" style="stroke:#038048;stroke-width:1.0;"/>
            <text fill="#000000" font-family="sans-serif" font-size="14" lengthAdjust="spacing" textLength="278" x="1548" y="304.1426">actualizarColonia(colonia: Colonia): boolean</text>
            <ellipse cx="1539" cy="317.5234" fill="#84BE84" rx="3" ry="3" style="stroke:#038048;stroke-width:1.0;"/>
            <text fill="#000000" font-family="sans-serif" font-size="14" lengthAdjust="spacing" textLength="200" x="1548" y="321.752">eliminarColonia(id: int): boolean</text>
        </g>
        <!--class EntityFactory-->
        <g id="elem_EntityFactory">
            <rect codeLine="95" fill="#F1F1F1" height="65.6094" id="EntityFactory" rx="2.5" ry="2.5" style="stroke:#181818;stroke-width:0.5;" width="234" x="2899" y="449"/>
            <ellipse cx="2970.25" cy="465" fill="#A9DCDF" rx="11" ry="11" style="stroke:#181818;stroke-width:1.0;"/>
            <path d="M2972.4375,466.7656 L2968.2969,466.7656 L2967.875,467.7969 L2968.2969,467.7969 Q2968.9063,467.7969 2969.1719,468.0313 Q2969.4375,468.2656 2969.4375,468.6563 Q2969.4375,469.0313 2969.1719,469.2656 Q2968.9063,469.5 2968.2969,469.5 L2966,469.5 Q2965.3906,469.5 2965.1406,469.2656 Q2964.875,469.0313 2964.875,468.6406 Q2964.875,468.2656 2965.1563,468.0313 Q2965.4219,467.7813 2966.0469,467.7969 L2968.7188,461.1406 L2967.6094,461.1406 Q2967,461.1406 2966.7344,460.9063 Q2966.4688,460.6719 2966.4688,460.2813 Q2966.4688,459.9063 2966.7344,459.6719 Q2967,459.4375 2967.6094,459.4375 L2971.2813,459.4375 L2974.6719,467.7969 Q2975.2656,467.7969 2975.4531,467.9375 Q2975.8438,468.2031 2975.8438,468.6563 Q2975.8438,469.0313 2975.5781,469.2656 Q2975.3281,469.5 2974.7188,469.5 L2972.4219,469.5 Q2971.8125,469.5 2971.5469,469.2656 Q2971.2813,469.0313 2971.2813,468.6406 Q2971.2813,468.2656 2971.5469,468.0313 Q2971.8125,467.7969 2972.4219,467.7969 L2972.8438,467.7969 L2972.4375,466.7656 Z M2971.7188,465.0625 L2970.3594,461.6875 L2968.9844,465.0625 L2971.7188,465.0625 Z " fill="#000000"/>
            <text fill="#000000" font-family="sans-serif" font-size="14" font-style="italic" lengthAdjust="spacing" textLength="83" x="2990.75" y="470.7285">EntityFactory</text>
            <line style="stroke:#181818;stroke-width:0.5;" x1="2900" x2="3132" y1="481" y2="481"/>
            <line style="stroke:#181818;stroke-width:0.5;" x1="2900" x2="3132" y1="489" y2="489"/>
            <ellipse cx="2910" cy="503.3047" fill="#84BE84" rx="3" ry="3" style="stroke:#038048;stroke-width:1.0;"/>
            <text fill="#000000" font-family="sans-serif" font-size="14" lengthAdjust="spacing" textLength="208" x="2919" y="507.5332">crearEntidad(tipo: String): Object</text>
        </g>
        <!--class GeneralEntityFactory-->
        <g id="elem_GeneralEntityFactory">
            <rect codeLine="99" fill="#F1F1F1" height="65.6094" id="GeneralEntityFactory" rx="2.5" ry="2.5" style="stroke:#181818;stroke-width:0.5;" width="234" x="2899" y="245.5"/>
            <ellipse cx="2944.75" cy="261.5" fill="#ADD1B2" rx="11" ry="11" style="stroke:#181818;stroke-width:1.0;"/>
            <path d="M2947.5156,257.375 Q2947.6719,257.1563 2947.8594,257.0469 Q2948.0469,256.9375 2948.2656,256.9375 Q2948.6406,256.9375 2948.875,257.2031 Q2949.1094,257.4531 2949.1094,258.0625 L2949.1094,259.5156 Q2949.1094,260.125 2948.875,260.3906 Q2948.6406,260.6563 2948.2656,260.6563 Q2947.9219,260.6563 2947.7188,260.4531 Q2947.5156,260.2656 2947.4063,259.75 Q2947.3594,259.3906 2947.1719,259.2031 Q2946.8438,258.8281 2946.2344,258.6094 Q2945.625,258.3906 2945,258.3906 Q2944.2344,258.3906 2943.5938,258.7188 Q2942.9688,259.0469 2942.4688,259.7969 Q2941.9844,260.5469 2941.9844,261.5781 L2941.9844,262.6719 Q2941.9844,263.9063 2942.875,264.7344 Q2943.7656,265.5469 2945.3594,265.5469 Q2946.2969,265.5469 2946.9531,265.2969 Q2947.3438,265.1406 2947.7656,264.7031 Q2948.0313,264.4375 2948.1719,264.3594 Q2948.3281,264.2813 2948.5313,264.2813 Q2948.8594,264.2813 2949.1094,264.5469 Q2949.375,264.7969 2949.375,265.1406 Q2949.375,265.4844 2949.0313,265.8906 Q2948.5313,266.4688 2947.7344,266.7969 Q2946.6563,267.25 2945.3594,267.25 Q2943.8438,267.25 2942.6406,266.625 Q2941.6563,266.125 2940.9688,265.0625 Q2940.2813,263.9844 2940.2813,262.7031 L2940.2813,261.5469 Q2940.2813,260.2188 2940.8906,259.0781 Q2941.5156,257.9219 2942.6094,257.3125 Q2943.7031,256.6875 2944.9375,256.6875 Q2945.6719,256.6875 2946.3125,256.8594 Q2946.9688,257.0156 2947.5156,257.375 Z " fill="#000000"/>
            <text fill="#000000" font-family="sans-serif" font-size="14" lengthAdjust="spacing" textLength="134" x="2965.25" y="267.2285">GeneralEntityFactory</text>
            <line style="stroke:#181818;stroke-width:0.5;" x1="2900" x2="3132" y1="277.5" y2="277.5"/>
            <line style="stroke:#181818;stroke-width:0.5;" x1="2900" x2="3132" y1="285.5" y2="285.5"/>
            <ellipse cx="2910" cy="299.8047" fill="#84BE84" rx="3" ry="3" style="stroke:#038048;stroke-width:1.0;"/>
            <text fill="#000000" font-family="sans-serif" font-size="14" lengthAdjust="spacing" textLength="208" x="2919" y="304.0332">crearEntidad(tipo: String): Object</text>
        </g>
        <!--class ActividadeDeLimpieza-->
        <g id="elem_ActividadeDeLimpieza">
            <rect codeLine="2" fill="#F1F1F1" height="48" id="ActividadeDeLimpieza" rx="2.5" ry="2.5" style="stroke:#181818;stroke-width:0.5;" width="170" x="7" y="68.5"/>
            <ellipse cx="22" cy="84.5" fill="#ADD1B2" rx="11" ry="11" style="stroke:#181818;stroke-width:1.0;"/>
            <path d="M24.7656,80.375 Q24.9219,80.1563 25.1094,80.0469 Q25.2969,79.9375 25.5156,79.9375 Q25.8906,79.9375 26.125,80.2031 Q26.3594,80.4531 26.3594,81.0625 L26.3594,82.5156 Q26.3594,83.125 26.125,83.3906 Q25.8906,83.6563 25.5156,83.6563 Q25.1719,83.6563 24.9688,83.4531 Q24.7656,83.2656 24.6563,82.75 Q24.6094,82.3906 24.4219,82.2031 Q24.0938,81.8281 23.4844,81.6094 Q22.875,81.3906 22.25,81.3906 Q21.4844,81.3906 20.8438,81.7188 Q20.2188,82.0469 19.7188,82.7969 Q19.2344,83.5469 19.2344,84.5781 L19.2344,85.6719 Q19.2344,86.9063 20.125,87.7344 Q21.0156,88.5469 22.6094,88.5469 Q23.5469,88.5469 24.2031,88.2969 Q24.5938,88.1406 25.0156,87.7031 Q25.2813,87.4375 25.4219,87.3594 Q25.5781,87.2813 25.7813,87.2813 Q26.1094,87.2813 26.3594,87.5469 Q26.625,87.7969 26.625,88.1406 Q26.625,88.4844 26.2813,88.8906 Q25.7813,89.4688 24.9844,89.7969 Q23.9063,90.25 22.6094,90.25 Q21.0938,90.25 19.8906,89.625 Q18.9063,89.125 18.2188,88.0625 Q17.5313,86.9844 17.5313,85.7031 L17.5313,84.5469 Q17.5313,83.2188 18.1406,82.0781 Q18.7656,80.9219 19.8594,80.3125 Q20.9531,79.6875 22.1875,79.6875 Q22.9219,79.6875 23.5625,79.8594 Q24.2188,80.0156 24.7656,80.375 Z " fill="#000000"/>
            <text fill="#000000" font-family="sans-serif" font-size="14" lengthAdjust="spacing" textLength="138" x="36" y="90.2285">ActividadeDeLimpieza</text>
            <line style="stroke:#181818;stroke-width:0.5;" x1="8" x2="176" y1="100.5" y2="100.5"/>
            <line style="stroke:#181818;stroke-width:0.5;" x1="8" x2="176" y1="108.5" y2="108.5"/>
        </g>
        <!--link AdministradorController to AdministradorDAO-->
        <g id="link_AdministradorController_AdministradorDAO">
            <path codeLine="105" d="M564.45,143.05 C631.01,168.73 712.22,200.05 779.5,226 " fill="none" id="AdministradorController-to-AdministradorDAO" style="stroke:#181818;stroke-width:1.0;"/>
            <polygon fill="#181818" points="784.32,227.86,777.3673,220.8844,779.6562,226.0574,774.4832,228.3464,784.32,227.86" style="stroke:#181818;stroke-width:1.0;"/>
        </g>
        <!--link ActividadController to ActividadDAO-->
        <g id="link_ActividadController_ActividadDAO">
            <path codeLine="106" d="M1082.08,134.11 C1127.78,160.97 1188.12,196.44 1237.35,225.39 " fill="none" id="ActividadController-to-ActividadDAO" style="stroke:#181818;stroke-width:1.0;"/>
            <polygon fill="#181818" points="1241.78,227.99,1236.0495,219.9799,1237.47,225.4555,1231.9943,226.876,1241.78,227.99" style="stroke:#181818;stroke-width:1.0;"/>
        </g>
        <!--link ColoniaController to ColoniaDAO-->
        <g id="link_ColoniaController_ColoniaDAO">
            <path codeLine="107" d="M1680,134.34 C1680,160.35 1680,194.37 1680,222.71 " fill="none" id="ColoniaController-to-ColoniaDAO" style="stroke:#181818;stroke-width:1.0;"/>
            <polygon fill="#181818" points="1680,227.94,1684,218.94,1680,222.94,1676,218.94,1680,227.94" style="stroke:#181818;stroke-width:1.0;"/>
        </g>
        <!--link CuadrillaController to Cuadrilla-->
        <g id="link_CuadrillaController_Cuadrilla">
            <path codeLine="108" d="M2184.55,134.24 C2149.78,207.06 2077.21,359.07 2040.81,435.32 " fill="none" id="CuadrillaController-to-Cuadrilla" style="stroke:#181818;stroke-width:1.0;"/>
            <polygon fill="#181818" points="2038.47,440.23,2045.9595,433.8341,2040.6258,435.7186,2038.7413,430.3849,2038.47,440.23" style="stroke:#181818;stroke-width:1.0;"/>
        </g>
        <!--link JefeCuadrillaController to JefeCuadrilla-->
        <g id="link_JefeCuadrillaController_JefeCuadrilla">
            <path codeLine="109" d="M2572.88,134 C2497.12,183.76 2369.78,273.53 2278,370 C2261.69,387.14 2246.28,408.01 2233.59,427 " fill="none" id="JefeCuadrillaController-to-JefeCuadrilla" style="stroke:#181818;stroke-width:1.0;"/>
            <polygon fill="#181818" points="2230.76,431.28,2239.0596,425.9774,2233.517,427.1088,2232.3856,421.5662,2230.76,431.28" style="stroke:#181818;stroke-width:1.0;"/>
        </g>
        <!--link GeneralEntityFactory to EntityFactory-->
        <g id="link_GeneralEntityFactory_EntityFactory">
            <path codeLine="111" d="M3016,311.87 C3016,343.31 3016,391.55 3016,428.48 " fill="none" id="GeneralEntityFactory-to-EntityFactory" style="stroke:#181818;stroke-width:1.0;"/>
            <polygon fill="none" points="3023,428.71,3016,448.71,3009,428.71,3023,428.71" style="stroke:#181818;stroke-width:1.0;"/>
        </g>
        <!--link GeneralEntityFactory to Actividad-->
        <g id="link_GeneralEntityFactory_Actividad">
            <path codeLine="112" d="M2898.87,307.97 C2819.06,326.28 2710.74,348.99 2614,362 C2586.85,365.65 2515.85,358.47 2491,370 C2470.91,379.32 2452.63,394.21 2437.08,410.1 " fill="none" id="GeneralEntityFactory-to-Actividad" style="stroke:#181818;stroke-width:1.0;"/>
            <polygon fill="#181818" points="2433.61,413.72,2442.7366,410.0179,2437.0807,410.1208,2436.9778,404.4649,2433.61,413.72" style="stroke:#181818;stroke-width:1.0;"/>
        </g>
        <!--link GeneralEntityFactory to Colonia-->
        <g id="link_GeneralEntityFactory_Colonia">
            <path codeLine="113" d="M2898.64,293.11 C2830.16,305.22 2744.45,327.89 2678,370 C2661.29,380.59 2646,395.1 2632.83,410.13 " fill="none" id="GeneralEntityFactory-to-Colonia" style="stroke:#181818;stroke-width:1.0;"/>
            <polygon fill="#181818" points="2629.52,413.97,2638.422,409.7564,2632.781,410.1798,2632.3577,404.5388,2629.52,413.97" style="stroke:#181818;stroke-width:1.0;"/>
        </g>
        <!--link GeneralEntityFactory to Cuadrilla-->
        <g id="link_GeneralEntityFactory_Cuadrilla">
            <path codeLine="114" d="M2898.9,281.34 C2688.84,286.28 2257.48,304.34 2124,370 C2093.74,384.89 2067.63,412.37 2049.02,436.26 " fill="none" id="GeneralEntityFactory-to-Cuadrilla" style="stroke:#181818;stroke-width:1.0;"/>
            <polygon fill="#181818" points="2045.87,440.37,2054.5377,435.6933,2048.9268,436.4133,2048.2069,430.8024,2045.87,440.37" style="stroke:#181818;stroke-width:1.0;"/>
        </g>
        <!--link GeneralEntityFactory to JefeCuadrilla-->
        <g id="link_GeneralEntityFactory_JefeCuadrilla">
            <path codeLine="115" d="M2898.85,303.36 C2798.3,322.77 2649.25,349 2518,362 C2491.45,364.63 2301.43,357.24 2278,370 C2255.02,382.52 2237.45,405.21 2224.93,426.82 " fill="none" id="GeneralEntityFactory-to-JefeCuadrilla" style="stroke:#181818;stroke-width:1.0;"/>
            <polygon fill="#181818" points="2222.34,431.42,2230.2451,425.5455,2224.7961,427.0648,2223.2767,421.6158,2222.34,431.42" style="stroke:#181818;stroke-width:1.0;"/>
        </g>
        <!--link GeneralEntityFactory to Administrador-->
        <g id="link_GeneralEntityFactory_Administrador">
            <path codeLine="116" d="M2964.3,311.66 C2939.03,328.12 2908.63,349.07 2883,370 C2861.44,387.61 2839.18,408.56 2820.13,427.48 " fill="none" id="GeneralEntityFactory-to-Administrador" style="stroke:#181818;stroke-width:1.0;"/>
            <polygon fill="#181818" points="2816.36,431.24,2825.5595,427.723,2819.9027,427.7116,2819.9141,422.0548,2816.36,431.24" style="stroke:#181818;stroke-width:1.0;"/>
        </g>
        <!--link DatabaseConnection to DatabaseConnection-->
        <g id="link_DatabaseConnection_DatabaseConnection">
            <path codeLine="118" d="M1805.11,461.13 C1825.77,464.09 1840,471.04 1840,482 C1840,492.02 1828.11,498.69 1810.29,502.02 " fill="none" id="DatabaseConnection-to-DatabaseConnection" style="stroke:#181818;stroke-width:1.0;"/>
            <polygon fill="#181818" points="1805.11,502.87,1814.6417,505.3494,1810.0431,502.055,1813.3376,497.4564,1805.11,502.87" style="stroke:#181818;stroke-width:1.0;"/>
            <rect fill="none" height="6" style="stroke:#C82930;stroke-width:1.0;" width="6" x="1848" y="479.6758"/>
            <text fill="#000000" font-family="sans-serif" font-size="13" lengthAdjust="spacing" textLength="49" x="1858" y="487.4951">instance</text>
            <text fill="#000000" font-family="sans-serif" font-size="13" lengthAdjust="spacing" textLength="7" x="1812.9472" y="501.1468">1</text>
        </g>
        <!--link AdministradorDAO to DatabaseConnection-->
        <g id="link_AdministradorDAO_DatabaseConnection">
            <path codeLine="119" d="M1061.55,329.01 C1088.23,337.38 1115.86,345.71 1142,353 C1280.14,391.54 1440.25,428.69 1549.65,452.94 " fill="none" id="AdministradorDAO-to-DatabaseConnection" style="stroke:#181818;stroke-width:1.0;"/>
            <polygon fill="#181818" points="1554.83,454.09,1546.8993,448.2501,1549.9467,453.016,1545.1809,456.0634,1554.83,454.09" style="stroke:#181818;stroke-width:1.0;"/>
        </g>
        <!--link ActividadDAO to DatabaseConnection-->
        <g id="link_ActividadDAO_DatabaseConnection">
            <path codeLine="120" d="M1413.05,329.05 C1461.44,356.59 1522.04,391.09 1573.27,420.25 " fill="none" id="ActividadDAO-to-DatabaseConnection" style="stroke:#181818;stroke-width:1.0;"/>
            <polygon fill="#181818" points="1577.88,422.87,1572.0363,414.9421,1573.5344,420.397,1568.0795,421.8951,1577.88,422.87" style="stroke:#181818;stroke-width:1.0;"/>
        </g>
        <!--link ColoniaDAO to DatabaseConnection-->
        <g id="link_ColoniaDAO_DatabaseConnection">
            <path codeLine="121" d="M1680,329.05 C1680,355.71 1680,388.88 1680,417.42 " fill="none" id="ColoniaDAO-to-DatabaseConnection" style="stroke:#181818;stroke-width:1.0;"/>
            <polygon fill="#181818" points="1680,422.69,1684,413.69,1680,417.69,1676,413.69,1680,422.69" style="stroke:#181818;stroke-width:1.0;"/>
        </g>
        <!--SRC=[fLR1Rjim3BthAunUbg7DOTTW250atT2XGuTjFy38hADDbWnPAT1k_QXzmtviacjPaYqvwUgJJJwIZvIUPCgXROjBgjazAw74BTwmkc7u28GqG7z2XSL62gqavwYANwGm3tqEAcicMAiLb59DCFOvXqfX1If2BWxj0HIJg-ARLanK5mMriT3Ytp_WZ6zNnKvAZY1yidlWXgBQA2nHK0OSs__EnGsR4I-JpI1lpEVxoBxkefv8sBaRrtpN3hKeiQMADPH9uPdU8TqRZblGU57ifJBltrbjtj44TGrUrsRwueGsXjKBMd2s1FsDv58mc2NVOnP2rZk5uNnBLialqjJbtbeV1AEi2HS23QAKnydtXJpptf3YVO1ICSwFC7UedllmVG8N1mtOE5E2poUymzCuHSZfJ3t30PGdQNErFfaZ6fLmP9-yY3_B4dbUlm7f9IiZrwfWGdllI7BUaP3UZ7H61PrvL2oX7EyC5EIDNadUbb5KLXanjzuuOXOlOZY5gK2yToAKW6Gac9dTFsBdDq-2tsJp7zd5SMxhEh7j996eZbacs9djOOGYq2ot554nOTeN55S9NBJ5UjkgIFZFAzJNVI8hZ9bK5khD5Zm2HUBPNjxcfUETNMBJ2QhnvRA0M56HCwLreFfWxhl7r-P1pWnYd8KzwsmKa1PghhtXTWEltS5ufAKNnmvj394djD0BDzE0k-6eatTlcAV-aYX7siNaA0SRxOEf9DL3pnTsTi6exlkv4fhfXnZI5Q8AGLcl7OncJNZjtkv-c5qz7Sv75AY0lpwdoVgc-8eSh7JQFMjQalipN2xN4-cGrCzK1mms89d-ibY8Ns2IkeSxYBEJt6rjKP6FaEHibilVwtW9ShY0UnxISvy137ooa9XsdaquSa8I1x55dRqxIvtHAtysaycnP-CIXsnqTcGmWJWpY7y0]-->
    </g>
</svg>
